<?xml version="1.0" encoding="utf-8"?>
<!-- Generator: Adobe Illustrator 21.0.0, SVG Export Plug-In . SVG Version: 6.00 Build 0)  -->
<svg version="1.2" baseProfile="tiny" id="Layer_1" xmlns="http://www.w3.org/2000/svg" xmlns:xlink="http://www.w3.org/1999/xlink"
	 x="0px" y="0px" viewBox="0 0 128 128" xml:space="preserve">
<rect x="-828.2" y="-372.5" fill="none" width="1920" height="741"/>
<text transform="matrix(1 0 0 1 -101.4467 -281.6313)" fill="#1A1A1A" font-family="'Melbourne-Bold'" font-size="130px">L</text>
<text transform="matrix(1 0 0 1 -45.8071 -281.6313)" fill="#1A1A1A" font-family="'Melbourne-Bold'" font-size="130px">I</text>
<text transform="matrix(1 0 0 1 -17.0776 -281.6313)" fill="#1A1A1A" font-family="'Melbourne-Bold'" font-size="130px">N</text>
<text transform="matrix(1 0 0 1 56.5015 -281.6313)" fill="#1A1A1A" font-family="'Melbourne-Bold'" font-size="130px">K</text>
<text transform="matrix(1 0 0 1 127.3511 -281.6313)" fill="#1A1A1A" font-family="'Melbourne-Bold'" font-size="130px">E</text>
<text transform="matrix(1 0 0 1 192.7398 -281.6313)" fill="#1A1A1A" font-family="'Melbourne-Bold'" font-size="130px">D</text>
<text transform="matrix(1 0 0 1 262.8082 -281.6313)" fill="#1A1A1A" font-family="'Melbourne-Bold'" font-size="130px">I</text>
<text transform="matrix(1 0 0 1 291.5377 -281.6313)" fill="#1A1A1A" font-family="'Melbourne-Bold'" font-size="130px">N</text>
<text transform="matrix(1 0 0 1 -209.3452 -125.6313)" fill="#FFFFFF" font-family="'Melbourne-Bold'" font-size="130px">A</text>
<text transform="matrix(1 0 0 1 -140.8364 -125.6313)" fill="#FFFFFF" font-family="'Melbourne-Bold'" font-size="130px">U</text>
<text transform="matrix(1 0 0 1 -72.7182 -125.6313)" fill="#FFFFFF" font-family="'Melbourne-Bold'" font-size="130px">T</text>
<text transform="matrix(1 0 0 1 -14.2182 -125.6313)" fill="#FFFFFF" font-family="'Melbourne-Bold'" font-size="130px">O</text>
<text transform="matrix(1 0 0 1 55.7213 -125.6313)" fill="#FFFFFF" font-family="'Melbourne-Bold'" font-size="130px">P</text>
<text transform="matrix(1 0 0 1 117.731 -125.6313)" fill="#FFFFFF" font-family="'Melbourne-Bold'" font-size="130px">U</text>
<text transform="matrix(1 0 0 1 185.8492 -125.6313)" fill="#FFFFFF" font-family="'Melbourne-Bold'" font-size="130px">B</text>
<text transform="matrix(1 0 0 1 253.0562 -125.6313)" fill="#FFFFFF" font-family="'Melbourne-Bold'" font-size="130px">L</text>
<text transform="matrix(1 0 0 1 308.6959 -125.6313)" fill="#FFFFFF" font-family="'Melbourne-Bold'" font-size="130px">I</text>
<text transform="matrix(1 0 0 1 337.4254 -125.6313)" fill="#FFFFFF" font-family="'Melbourne-Bold'" font-size="130px">S</text>
<text transform="matrix(1 0 0 1 400.6041 -125.6313)" fill="#FFFFFF" font-family="'Melbourne-Bold'" font-size="130px">H</text>
<rect x="-6.5" y="-3.6" fill="#0077B5" width="138.3" height="138.3"/>
<g>
	<path fill="#1A1A1A" d="M29.3,71.8c0,0,0.6,0,0.6,0.6v12.3h4.2c0.6,0,0.6,0.6,0.6,0.6v0.8c0,0,0,0.6-0.6,0.6h-6.3V72.4
		c0-0.6,0.6-0.6,0.6-0.6H29.3z"/>
	<path fill="#1A1A1A" d="M38.4,71.8c0,0,0.6,0,0.6,0.6v13.7c0,0.6-0.6,0.6-0.6,0.6h-0.8c0,0-0.6,0-0.6-0.6V72.4
		c0-0.6,0.6-0.6,0.6-0.6H38.4z"/>
	<path fill="#1A1A1A" d="M43.6,71.8c0,0,0.4,0,0.7,0.5L48.8,83l-0.1-10.6c0,0,0-0.6,0.6-0.6h0.8c0,0,0.6,0,0.6,0.6v13.7
		c0,0,0,0.6-0.6,0.6h-1.3c0,0-0.5,0-0.7-0.4l-4.5-10.8l0.1,10.6c0,0,0,0.6-0.6,0.6h-0.8c0,0-0.6,0-0.6-0.6V72.4c0,0,0-0.6,0.6-0.6
		H43.6z"/>
	<path fill="#1A1A1A" d="M55.2,71.8c0,0,0.6,0,0.6,0.6v5.5l4-5.7c0.2-0.4,0.7-0.4,0.7-0.4h1c0,0,1,0,0.5,0.9l-3.9,5.5l3,5.3
		c0.4,0.7,0.7,1.2,1.2,1.2h0.1c0.6,0,0.6,0.6,0.6,0.6v0.7c0,0,0,0.6-0.6,0.6H62c-1.3,0-2-0.7-2.9-2.3l-2.5-4.3l-0.8,1.1v4.8
		c0,0.6-0.6,0.6-0.6,0.6h-0.9c0,0-0.6,0-0.6-0.6V72.4c0-0.6,0.6-0.6,0.6-0.6H55.2z"/>
	<path fill="#1A1A1A" d="M72.9,71.8c0.6,0,0.6,0.6,0.6,0.6v0.8c0,0,0,0.6-0.6,0.6h-5.5v4.4h4.1c0.6,0,0.6,0.6,0.6,0.6v0.8
		c0,0,0,0.6-0.6,0.6h-4.1v4.5h5.5c0.6,0,0.6,0.6,0.6,0.6v0.8c0,0,0,0.6-0.6,0.6h-7.6V71.8H72.9z"/>
	<path fill="#1A1A1A" d="M80.4,71.8c3.2,0,4.4,2.1,4.4,4.8v5.3c0,2.7-1.2,4.8-4.4,4.8h-4.3V71.8H80.4z M78.2,84.7h2.2
		c1.5,0,2.3-0.9,2.3-2.8v-5.3c0-1.9-0.9-2.8-2.3-2.8h-2.2V84.7z"/>
	<path fill="#1A1A1A" d="M89.1,71.8c0,0,0.6,0,0.6,0.6v13.7c0,0.6-0.6,0.6-0.6,0.6h-0.8c0,0-0.6,0-0.6-0.6V72.4
		c0-0.6,0.6-0.6,0.6-0.6H89.1z"/>
	<path fill="#1A1A1A" d="M94.3,71.8c0,0,0.4,0,0.7,0.5L99.4,83l-0.1-10.6c0,0,0-0.6,0.6-0.6h0.8c0,0,0.6,0,0.6,0.6v13.7
		c0,0,0,0.6-0.6,0.6h-1.3c0,0-0.5,0-0.7-0.4l-4.5-10.8l0.1,10.6c0,0,0,0.6-0.6,0.6H93c0,0-0.6,0-0.6-0.6V72.4c0,0,0-0.6,0.6-0.6
		H94.3z"/>
	<path fill="#FFFFFF" d="M15.2,97.4c0,0,0.5,0,0.6,0.5l3.8,13.7c0.2,0.7-0.5,0.7-0.5,0.7h-1c-0.2,0-0.5-0.2-0.6-0.5l-1.3-4.8h-3.8
		l-1.4,4.8c-0.1,0.3-0.4,0.5-0.6,0.5h-1c0,0-0.7,0-0.5-0.7l3.9-13.7c0.1-0.5,0.6-0.5,0.6-0.5H15.2z M14.3,99.7l-1.4,5.4h2.8
		L14.3,99.7L14.3,99.7z"/>
	<path fill="#FFFFFF" d="M22.5,97.4c0,0,0.6,0,0.6,0.6v9c0,2.6,0.7,3.4,2.4,3.4c1.5,0,2.3-0.8,2.3-3.4v-9c0-0.6,0.6-0.6,0.6-0.6h0.9
		c0,0,0.6,0,0.6,0.6v8.9c0,3-1.2,5.5-4.4,5.5c-3.1,0-4.4-2.5-4.4-5.5V98c0-0.6,0.6-0.6,0.6-0.6H22.5z"/>
	<path fill="#FFFFFF" d="M40,97.4c0.6,0,0.6,0.6,0.6,0.6v0.8c0,0,0,0.6-0.6,0.6h-2.8v12.3c0,0.6-0.6,0.6-0.6,0.6h-0.9
		c0,0-0.6,0-0.6-0.6V99.4h-2.8c-0.6,0-0.6-0.6-0.6-0.6V98c0,0,0-0.6,0.6-0.6H40z"/>
	<path fill="#FFFFFF" d="M50.8,102.1v5.5c0,2.7-1.2,4.8-4.4,4.8c-3.2,0-4.4-2.1-4.4-4.8v-5.5c0-2.7,1.3-4.9,4.4-4.9
		C49.6,97.3,50.8,99.4,50.8,102.1z M44,102.1v5.5c0,2,0.9,2.8,2.4,2.8c1.5,0,2.3-0.9,2.3-2.8v-5.5c0-2-0.9-2.8-2.3-2.8
		C44.9,99.3,44,100.2,44,102.1z"/>
	<path fill="#FFFFFF" d="M57.2,97.4c3.2,0,4.5,1.9,4.5,4.6v0.5c0,2.7-1.3,4.6-4.5,4.6h-1.5v4.5c0,0.6-0.6,0.6-0.6,0.6h-0.9
		c0,0-0.6,0-0.6-0.6V97.4H57.2z M55.7,105.2h1.5c1.5,0,2.4-0.7,2.4-2.6V102c0-1.9-0.9-2.6-2.4-2.6h-1.5V105.2z"/>
	<path fill="#FFFFFF" d="M65,97.4c0,0,0.6,0,0.6,0.6v9c0,2.6,0.7,3.4,2.4,3.4c1.5,0,2.3-0.8,2.3-3.4v-9c0-0.6,0.6-0.6,0.6-0.6h0.9
		c0,0,0.6,0,0.6,0.6v8.9c0,3-1.2,5.5-4.4,5.5c-3.1,0-4.4-2.5-4.4-5.5V98c0-0.6,0.6-0.6,0.6-0.6H65z"/>
	<path fill="#FFFFFF" d="M78.8,97.4c3,0,4.3,1.7,4.3,4.1c0,1.4-0.6,2.3-1.3,2.9c1.3,0.7,1.7,2,1.7,3.5c0,2.3-1.3,4.5-4.5,4.5h-4
		V97.4H78.8z M77.1,103.5h1.4c1.6,0,2.6-0.7,2.6-2c0-1.3-0.7-2-2.2-2h-1.7V103.5z M77.1,110.3H79c1.5,0,2.4-0.9,2.4-2.5
		c0-2-1.2-2.4-2.6-2.4h-1.8V110.3z"/>
	<path fill="#FFFFFF" d="M87.5,97.4c0,0,0.6,0,0.6,0.6v12.3h4.2c0.6,0,0.6,0.6,0.6,0.6v0.8c0,0,0,0.6-0.6,0.6h-6.3V98
		c0-0.6,0.6-0.6,0.6-0.6H87.5z"/>
	<path fill="#FFFFFF" d="M96.6,97.4c0,0,0.6,0,0.6,0.6v13.7c0,0.6-0.6,0.6-0.6,0.6h-0.8c0,0-0.6,0-0.6-0.6V98c0-0.6,0.6-0.6,0.6-0.6
		H96.6z"/>
	<path fill="#FFFFFF" d="M107.8,100.8c0,0.3,0,0.6-0.4,0.7l-0.7,0.2c-0.4,0.1-0.8,0-0.9-0.5c-0.3-1.3-1-1.9-2.2-1.9
		c-1.6,0-2.2,1-2.2,1.8c0,0.7,0.2,1.3,0.9,1.7l3.7,1.9c1.3,0.7,2,2.1,2,3.5c0,2.4-1.6,4.2-4.5,4.2c-1.8,0-4.4-1-4.4-4.4
		c0-0.6,0.6-0.6,0.6-0.6h0.9c0,0,0.6,0,0.6,0.6c0,1.9,1.3,2.3,2.3,2.3c1.7,0,2.4-1.2,2.4-2.2c0-0.7-0.3-1.4-1.3-1.9l-3.1-1.6
		c-2-1-2.2-2.6-2.2-3.7c0-2.5,1.9-3.8,4.2-3.8C106.1,97.3,107.5,98.8,107.8,100.8z"/>
	<path fill="#FFFFFF" d="M111.7,97.4c0,0,0.6,0,0.6,0.6v5.6h4.7V98c0-0.6,0.6-0.6,0.6-0.6h0.8c0,0,0.6,0,0.6,0.6v13.7
		c0,0.6-0.6,0.6-0.6,0.6h-0.8c0,0-0.6,0-0.6-0.6v-6.1h-4.7v6.1c0,0.6-0.6,0.6-0.6,0.6h-0.8c0,0-0.6,0-0.6-0.6V98
		c0-0.6,0.6-0.6,0.6-0.6H111.7z"/>
</g>
<g>
	<g>
		<g>
			<path fill="#FFFFFF" d="M81.6,16.4H48.4c-1.6,0-2.9,1.3-2.9,2.8v33.4c0,1.6,1.3,2.8,2.9,2.8h33.3c1.6,0,2.9-1.3,2.9-2.8V19.2
				C84.5,17.6,83.2,16.4,81.6,16.4z M57.1,49.6h-5.8V31h5.8V49.6z M54.2,28.5c-1.9,0-3.4-1.5-3.4-3.4c0-1.9,1.5-3.4,3.4-3.4
				c1.9,0,3.4,1.5,3.4,3.4C57.5,27,56,28.5,54.2,28.5z M78.7,49.6H73v-9.1c0-2.2,0-4.9-3-4.9c-3,0-3.5,2.4-3.5,4.8v9.2h-5.8V31h5.6
				v2.5h0.1c0.8-1.5,2.7-3,5.5-3c5.9,0,6.9,3.9,6.9,8.9V49.6z"/>
		</g>
	</g>
</g>
</svg>
